<svg xmlns="http://www.w3.org/2000/svg" width="256" height="256" viewBox="0 0 256 256" version="1.1"><path d="M 112.660 45.048 C 80.196 50.496, 53.963 72.564, 43.770 103 C 40.758 111.993, 40.588 113.300, 40.588 127.500 C 40.588 141.695, 40.759 143.012, 43.770 152.030 C 52.830 179.158, 73.632 198.794, 102.718 207.670 C 110.627 210.084, 113.040 210.351, 127 210.351 C 141.014 210.351, 143.363 210.089, 151.500 207.622 C 189.890 195.982, 214.272 164.467, 213.875 127 C 213.752 115.434, 212.349 106.341, 212.101 115.500 C 211.378 142.150, 191.864 165.818, 165 172.627 C 156.464 174.791, 141.429 174.755, 133.080 172.552 C 111.482 166.851, 93.805 149.707, 88.492 129.307 C 86.577 121.956, 86.577 107.044, 88.492 99.693 C 92.879 82.848, 105.436 68.361, 122.500 60.454 C 139.019 52.800, 159.695 52.835, 177 60.545 C 183.352 63.375, 181.358 61.553, 172 55.976 C 164.562 51.543, 150.513 46.598, 141 45.064 C 133.558 43.863, 119.763 43.855, 112.660 45.048" stroke="none" fill="none" fill-rule="evenodd"/><path d="M 13.500 1.900 C 11.300 2.921, 8.060 5.273, 6.301 7.128 C -0.400 14.190, -0.002 6.524, 0.022 128.218 C 0.043 233.517, 0.128 238.681, 1.900 242.500 C 2.921 244.700, 5.273 247.940, 7.128 249.699 C 14.188 256.398, 6.555 256, 128 256 C 249.448 256, 241.843 256.397, 248.845 249.699 C 250.684 247.940, 253.272 244.278, 254.595 241.563 L 257 236.626 257 126.254 C 257 61.714, 256.629 16.111, 256.107 16.434 C 255.615 16.738, 254.929 15.853, 254.581 14.468 C 253.659 10.792, 247.117 3.968, 242.500 1.866 C 238.708 0.138, 232.765 0.044, 128 0.044 C 22.463 0.044, 17.320 0.127, 13.500 1.900 M 0.483 128 C 0.483 189.325, 0.603 214.413, 0.750 183.750 C 0.897 153.088, 0.897 102.913, 0.750 72.250 C 0.603 41.588, 0.483 66.675, 0.483 128 M 112.660 45.048 C 80.196 50.496, 53.963 72.564, 43.770 103 C 40.758 111.993, 40.588 113.300, 40.588 127.500 C 40.588 141.695, 40.759 143.012, 43.770 152.030 C 52.830 179.158, 73.632 198.794, 102.718 207.670 C 110.627 210.084, 113.040 210.351, 127 210.351 C 141.014 210.351, 143.363 210.089, 151.500 207.622 C 189.890 195.982, 214.272 164.467, 213.875 127 C 213.752 115.434, 212.349 106.341, 212.101 115.500 C 211.378 142.150, 191.864 165.818, 165 172.627 C 156.464 174.791, 141.429 174.755, 133.080 172.552 C 111.482 166.851, 93.805 149.707, 88.492 129.307 C 86.577 121.956, 86.577 107.044, 88.492 99.693 C 92.879 82.848, 105.436 68.361, 122.500 60.454 C 139.019 52.800, 159.695 52.835, 177 60.545 C 183.352 63.375, 181.358 61.553, 172 55.976 C 164.562 51.543, 150.513 46.598, 141 45.064 C 133.558 43.863, 119.763 43.855, 112.660 45.048" stroke="none" fill="black" fill-rule="evenodd"/></svg>