<svg xmlns="http://www.w3.org/2000/svg" width="800" height="800" viewBox="0 0 800 800" version="1.1"><path d="M 215 116.110 C 211.915 117.324, 198.376 130.511, 196.427 134.200 C 194.722 137.426, 194.581 142.302, 196.104 145.316 C 196.710 146.517, 243.962 194.302, 301.106 251.505 L 405.006 355.509 379.509 380.991 L 354.013 406.473 320.722 373.236 C 287.431 340, 287.431 340, 283.150 340 C 280.795 340, 277.886 340.501, 276.684 341.112 C 273.433 342.768, 261.081 355.065, 259.326 358.394 C 257.376 362.091, 257.380 366.920, 259.334 370.606 C 260.178 372.198, 275.071 387.671, 292.430 404.990 L 323.992 436.480 276.496 484.014 L 229 531.549 229 536.469 C 229 541.363, 229.055 541.445, 238.805 551.195 C 248.143 560.533, 248.813 561, 252.871 561 C 255.214 561, 258.114 560.503, 259.316 559.896 C 260.517 559.288, 282.313 538.027, 307.751 512.648 L 354.002 466.506 462.251 574.649 C 521.788 634.128, 571.483 683.290, 572.684 683.896 C 575.685 685.412, 580.562 685.280, 583.800 683.594 C 585.285 682.821, 589.950 678.636, 594.167 674.294 C 602.102 666.124, 604.044 662.054, 602.497 656.837 C 602.115 655.552, 552.797 605.447, 492.901 545.493 L 383.999 436.486 409.501 410.999 L 435.002 385.512 471.251 421.651 C 491.188 441.528, 508.567 458.333, 509.871 458.995 C 512.944 460.557, 518.135 460.534, 521.102 458.945 C 524.411 457.175, 533.760 448.234, 537.148 443.600 C 539.299 440.659, 540 438.577, 540 435.131 L 540 430.561 502.507 393.020 L 465.014 355.479 517.552 302.990 C 546.447 274.120, 571.024 249.008, 572.167 247.184 C 573.767 244.631, 574.127 242.820, 573.732 239.316 C 573.273 235.247, 572.387 233.922, 565.360 226.810 C 555.929 217.265, 553.102 215.589, 547.662 216.318 C 543.917 216.821, 540.033 220.473, 489.324 271.176 L 434.998 325.495 330.749 221.351 C 273.412 164.072, 225.517 116.710, 224.316 116.104 C 221.689 114.776, 218.384 114.779, 215 116.110" stroke="none" fill="none" fill-rule="evenodd"/><path d="M 369.500 0.590 C 367.850 0.809, 361.550 1.486, 355.500 2.093 C 331.975 4.453, 301.669 10.902, 277.553 18.680 C 144.972 61.440, 44.435 169.471, 11.007 305.095 C 2.522 339.521, -0.455 368.142, 0.269 408.330 C 0.794 437.500, 1.951 449.772, 6.490 474.349 C 23.152 564.562, 72.305 648.198, 143.500 707.477 C 158.846 720.254, 164.473 724.416, 181.031 735.229 C 234.186 769.943, 287.964 789.461, 354.500 798.188 C 368.127 799.976, 431.800 799.982, 445.500 798.197 C 495.250 791.717, 536.518 779.497, 577.664 759.062 C 617.099 739.477, 650.507 715.473, 682.099 684.024 C 699.725 666.478, 708.913 655.876, 723.283 636.500 C 763.916 581.713, 791.573 510.631, 797.986 444.500 C 798.626 437.900, 799.566 430.873, 800.075 428.884 C 801.275 424.191, 801.283 372.509, 800.083 370.236 C 799.579 369.281, 798.642 362.878, 798.001 356.006 C 789.424 264.072, 741.702 169.709, 671.251 105.379 C 608.477 48.059, 534.634 13.877, 448.760 2.388 C 437.206 0.842, 377.748 -0.506, 369.500 0.590 M 215 116.110 C 211.915 117.324, 198.376 130.511, 196.427 134.200 C 194.722 137.426, 194.581 142.302, 196.104 145.316 C 196.710 146.517, 243.962 194.302, 301.106 251.505 L 405.006 355.509 379.509 380.991 L 354.013 406.473 320.722 373.236 C 287.431 340, 287.431 340, 283.150 340 C 280.795 340, 277.886 340.501, 276.684 341.112 C 273.433 342.768, 261.081 355.065, 259.326 358.394 C 257.376 362.091, 257.380 366.920, 259.334 370.606 C 260.178 372.198, 275.071 387.671, 292.430 404.990 L 323.992 436.480 276.496 484.014 L 229 531.549 229 536.469 C 229 541.363, 229.055 541.445, 238.805 551.195 C 248.143 560.533, 248.813 561, 252.871 561 C 255.214 561, 258.114 560.503, 259.316 559.896 C 260.517 559.288, 282.313 538.027, 307.751 512.648 L 354.002 466.506 462.251 574.649 C 521.788 634.128, 571.483 683.290, 572.684 683.896 C 575.685 685.412, 580.562 685.280, 583.800 683.594 C 585.285 682.821, 589.950 678.636, 594.167 674.294 C 602.102 666.124, 604.044 662.054, 602.497 656.837 C 602.115 655.552, 552.797 605.447, 492.901 545.493 L 383.999 436.486 409.501 410.999 L 435.002 385.512 471.251 421.651 C 491.188 441.528, 508.567 458.333, 509.871 458.995 C 512.944 460.557, 518.135 460.534, 521.102 458.945 C 524.411 457.175, 533.760 448.234, 537.148 443.600 C 539.299 440.659, 540 438.577, 540 435.131 L 540 430.561 502.507 393.020 L 465.014 355.479 517.552 302.990 C 546.447 274.120, 571.024 249.008, 572.167 247.184 C 573.767 244.631, 574.127 242.820, 573.732 239.316 C 573.273 235.247, 572.387 233.922, 565.360 226.810 C 555.929 217.265, 553.102 215.589, 547.662 216.318 C 543.917 216.821, 540.033 220.473, 489.324 271.176 L 434.998 325.495 330.749 221.351 C 273.412 164.072, 225.517 116.710, 224.316 116.104 C 221.689 114.776, 218.384 114.779, 215 116.110 M 0.441 400 C 0.441 415.675, 0.579 422.087, 0.748 414.250 C 0.917 406.412, 0.917 393.587, 0.748 385.750 C 0.579 377.912, 0.441 384.325, 0.441 400" stroke="none" fill="white" fill-rule="evenodd"/></svg>